<svg width="3527" height="1397" viewBox="0 0 3527 1397" fill="none" xmlns="http://www.w3.org/2000/svg">
<rect x="361" y="284" width="1000" height="250" rx="50" fill="#4F46E5"/>
<rect x="361" y="574" width="1000" height="250" rx="50" fill="#6366F1"/>
<rect x="361" y="864" width="1000" height="250" rx="50" fill="#A5B4FC"/>
<path d="M361 334C361 306.386 383.386 284 411 284H441V1114H411C383.386 1114 361 1091.61 361 1064V334Z" fill="#6C5B7B"/>
<path d="M1281 284H1311C1338.61 284 1361 306.386 1361 334V1064C1361 1091.61 1338.61 1114 1311 1114H1281V284Z" fill="#6C5B7B"/>
<path d="M720.135 910.472C722.896 910.472 725.135 912.711 725.135 915.472V1109.17C725.135 1111.93 722.896 1114.17 720.135 1114.17H526.439C523.677 1114.17 521.439 1111.93 521.439 1109.17V946.186C521.439 944.674 522.123 943.244 523.3 942.294L561.384 911.58C562.273 910.863 563.381 910.472 564.523 910.472H720.135Z" fill="#6366F1"/>
<path d="M567.355 952.161C567.155 955.068 564.521 957.19 561.637 956.764L525.799 951.476C521.485 950.839 519.996 945.37 523.394 942.635L561.715 911.782C565.112 909.047 570.138 911.669 569.839 916.02L567.355 952.161Z" fill="#4F46E5"/>
<path d="M720.135 620.472C722.896 620.472 725.135 622.711 725.135 625.472V819.168C725.135 821.93 722.896 824.168 720.135 824.168H526.439C523.677 824.168 521.439 821.93 521.439 819.168V656.186C521.439 654.674 522.123 653.244 523.3 652.294L561.384 621.58C562.273 620.863 563.381 620.472 564.523 620.472H720.135Z" fill="#4F46E5"/>
<path d="M567.355 662.161C567.155 665.068 564.521 667.19 561.637 666.764L525.799 661.476C521.485 660.839 519.996 655.37 523.394 652.635L561.715 621.782C565.112 619.047 570.138 621.669 569.839 626.02L567.355 662.161Z" fill="#A5B4FC"/>
<path d="M968.135 620.472C970.896 620.472 973.135 622.711 973.135 625.472V819.168C973.135 821.93 970.896 824.168 968.135 824.168H774.439C771.677 824.168 769.439 821.93 769.439 819.168V656.186C769.439 654.674 770.123 653.244 771.3 652.294L809.384 621.58C810.273 620.863 811.381 620.472 812.523 620.472H968.135Z" fill="#4F46E5"/>
<path d="M815.355 662.161C815.155 665.068 812.521 667.19 809.637 666.764L773.799 661.476C769.485 660.839 767.996 655.37 771.394 652.635L809.715 621.782C813.112 619.047 818.138 621.669 817.839 626.02L815.355 662.161Z" fill="#A5B4FC"/>
<path d="M1215.14 620.473C1217.9 620.473 1220.14 622.711 1220.14 625.473V819.169C1220.14 821.93 1217.9 824.169 1215.14 824.169H1021.44C1018.68 824.169 1016.44 821.93 1016.44 819.169V656.187C1016.44 654.675 1017.12 653.244 1018.3 652.295L1056.38 621.581C1057.27 620.864 1058.38 620.473 1059.52 620.473H1215.14Z" fill="#4F46E5"/>
<path d="M1062.36 662.161C1062.16 665.069 1059.52 667.19 1056.64 666.765L1020.8 661.476C1016.48 660.84 1015 655.37 1018.39 652.635L1056.72 621.783C1060.11 619.048 1065.14 621.669 1064.84 626.02L1062.36 662.161Z" fill="#A5B4FC"/>
<path d="M720.135 330.472C722.896 330.472 725.135 332.711 725.135 335.472V529.168C725.135 531.93 722.896 534.168 720.135 534.168H526.439C523.677 534.168 521.439 531.93 521.439 529.168V366.186C521.439 364.674 522.123 363.244 523.3 362.294L561.384 331.58C562.273 330.863 563.381 330.472 564.523 330.472H720.135Z" fill="#A5B4FC"/>
<path d="M567.355 372.161C567.155 375.068 564.521 377.19 561.637 376.764L525.799 371.476C521.485 370.839 519.996 365.37 523.394 362.635L561.715 331.782C565.112 329.047 570.138 331.669 569.839 336.02L567.355 372.161Z" fill="#6366F1"/>
<path d="M968.135 330.472C970.896 330.472 973.135 332.711 973.135 335.472V529.168C973.135 531.93 970.896 534.168 968.135 534.168H774.439C771.677 534.168 769.439 531.93 769.439 529.168V366.186C769.439 364.674 770.123 363.244 771.3 362.294L809.384 331.58C810.273 330.863 811.381 330.472 812.523 330.472H968.135Z" fill="#A5B4FC"/>
<path d="M815.355 372.161C815.155 375.068 812.521 377.19 809.637 376.764L773.799 371.476C769.485 370.839 767.996 365.37 771.394 362.635L809.715 331.782C813.112 329.047 818.138 331.669 817.839 336.02L815.355 372.161Z" fill="#6366F1"/>
<path d="M1215.13 330.472C1217.9 330.472 1220.13 332.711 1220.13 335.472V529.168C1220.13 531.93 1217.9 534.168 1215.13 534.168H1021.44C1018.68 534.168 1016.44 531.93 1016.44 529.168V366.186C1016.44 364.674 1017.12 363.244 1018.3 362.294L1056.38 331.58C1057.27 330.863 1058.38 330.472 1059.52 330.472H1215.13Z" fill="#A5B4FC"/>
<path d="M1062.36 372.161C1062.16 375.068 1059.52 377.19 1056.64 376.764L1020.8 371.476C1016.48 370.839 1015 365.37 1018.39 362.635L1056.72 331.782C1060.11 329.047 1065.14 331.669 1064.84 336.02L1062.36 372.161Z" fill="#6366F1"/>
<path d="M968.135 910.472C970.896 910.472 973.135 912.711 973.135 915.472V1109.17C973.135 1111.93 970.896 1114.17 968.135 1114.17H774.439C771.677 1114.17 769.439 1111.93 769.439 1109.17V946.186C769.439 944.674 770.123 943.244 771.3 942.294L809.384 911.58C810.273 910.863 811.381 910.472 812.523 910.472H968.135Z" fill="#6366F1"/>
<path d="M815.355 952.161C815.155 955.068 812.521 957.19 809.637 956.764L773.799 951.476C769.485 950.839 767.996 945.37 771.394 942.635L809.715 911.782C813.112 909.047 818.138 911.669 817.839 916.02L815.355 952.161Z" fill="#4F46E5"/>
<path d="M1215.13 910.472C1217.9 910.472 1220.13 912.711 1220.13 915.472V1109.17C1220.13 1111.93 1217.9 1114.17 1215.13 1114.17H1021.44C1018.68 1114.17 1016.44 1111.93 1016.44 1109.17V946.186C1016.44 944.674 1017.12 943.244 1018.3 942.294L1056.38 911.58C1057.27 910.863 1058.38 910.472 1059.52 910.472H1215.13Z" fill="#6366F1"/>
<path d="M1062.36 952.161C1062.16 955.068 1059.52 957.19 1056.64 956.764L1020.8 951.476C1016.48 950.839 1015 945.37 1018.39 942.635L1056.72 911.782C1060.11 909.047 1065.14 911.669 1064.84 916.02L1062.36 952.161Z" fill="#4F46E5"/>
<path d="M1637.73 686H1573.21V511.455H1637.64C1655.43 511.455 1670.74 514.949 1683.58 521.938C1696.48 528.869 1706.42 538.869 1713.41 551.938C1720.4 564.949 1723.89 580.517 1723.89 598.642C1723.89 616.824 1720.4 632.449 1713.41 645.517C1706.48 658.585 1696.56 668.614 1683.66 675.602C1670.77 682.534 1655.45 686 1637.73 686ZM1615.4 650.034H1636.11C1645.88 650.034 1654.15 648.386 1660.91 645.091C1667.73 641.739 1672.87 636.312 1676.34 628.812C1679.86 621.256 1681.62 611.199 1681.62 598.642C1681.62 586.085 1679.86 576.085 1676.34 568.642C1672.81 561.142 1667.61 555.744 1660.74 552.449C1653.92 549.097 1645.51 547.42 1635.51 547.42H1615.4V650.034ZM1785.43 688.216C1777.07 688.216 1769.66 686.824 1763.18 684.04C1756.76 681.199 1751.68 676.937 1747.93 671.256C1744.23 665.517 1742.39 658.33 1742.39 649.693C1742.39 642.42 1743.66 636.284 1746.22 631.284C1748.78 626.284 1752.3 622.222 1756.79 619.097C1761.28 615.972 1766.45 613.614 1772.3 612.023C1778.15 610.375 1784.4 609.267 1791.05 608.699C1798.49 608.017 1804.49 607.307 1809.03 606.568C1813.58 605.773 1816.88 604.665 1818.92 603.244C1821.02 601.767 1822.07 599.693 1822.07 597.023V596.597C1822.07 592.222 1820.57 588.841 1817.56 586.455C1814.55 584.068 1810.48 582.875 1805.37 582.875C1799.86 582.875 1795.43 584.068 1792.07 586.455C1788.72 588.841 1786.59 592.136 1785.68 596.341L1747.24 594.977C1748.38 587.023 1751.31 579.92 1756.02 573.67C1760.8 567.364 1767.33 562.42 1775.62 558.841C1783.98 555.205 1794.01 553.386 1805.71 553.386C1814.06 553.386 1821.76 554.381 1828.81 556.369C1835.85 558.301 1841.99 561.142 1847.22 564.892C1852.44 568.585 1856.48 573.131 1859.32 578.528C1862.22 583.926 1863.66 590.091 1863.66 597.023V686H1824.46V667.761H1823.44C1821.11 672.193 1818.13 675.943 1814.49 679.011C1810.91 682.08 1806.68 684.381 1801.79 685.915C1796.96 687.449 1791.51 688.216 1785.43 688.216ZM1798.3 660.943C1802.78 660.943 1806.82 660.034 1810.4 658.216C1814.03 656.398 1816.93 653.898 1819.09 650.716C1821.25 647.477 1822.33 643.727 1822.33 639.466V627.023C1821.14 627.648 1819.69 628.216 1817.98 628.727C1816.34 629.239 1814.52 629.722 1812.53 630.176C1810.54 630.631 1808.49 631.028 1806.39 631.369C1804.29 631.71 1802.27 632.023 1800.34 632.307C1796.42 632.932 1793.07 633.898 1790.28 635.205C1787.56 636.511 1785.45 638.216 1783.98 640.318C1782.56 642.364 1781.85 644.807 1781.85 647.648C1781.85 651.966 1783.38 655.261 1786.45 657.534C1789.57 659.807 1793.52 660.943 1798.3 660.943ZM1963.04 555.091V585.773H1880.45V555.091H1963.04ZM1897.76 523.727H1939.43V644.835C1939.43 647.392 1939.83 649.466 1940.62 651.057C1941.48 652.591 1942.7 653.699 1944.29 654.381C1945.88 655.006 1947.78 655.318 1950 655.318C1951.59 655.318 1953.27 655.176 1955.03 654.892C1956.85 654.551 1958.21 654.267 1959.12 654.04L1965.43 684.125C1963.44 684.693 1960.63 685.403 1956.99 686.256C1953.41 687.108 1949.12 687.648 1944.12 687.875C1934.35 688.33 1925.97 687.193 1918.98 684.466C1912.05 681.682 1906.73 677.364 1903.04 671.511C1899.4 665.659 1897.64 658.301 1897.76 649.438V523.727ZM2021.21 688.216C2012.86 688.216 2005.44 686.824 1998.96 684.04C1992.54 681.199 1987.46 676.937 1983.71 671.256C1980.01 665.517 1978.17 658.33 1978.17 649.693C1978.17 642.42 1979.45 636.284 1982 631.284C1984.56 626.284 1988.08 622.222 1992.57 619.097C1997.06 615.972 2002.23 613.614 2008.08 612.023C2013.93 610.375 2020.18 609.267 2026.83 608.699C2034.28 608.017 2040.27 607.307 2044.82 606.568C2049.36 605.773 2052.66 604.665 2054.7 603.244C2056.8 601.767 2057.86 599.693 2057.86 597.023V596.597C2057.86 592.222 2056.35 588.841 2053.34 586.455C2050.33 584.068 2046.26 582.875 2041.15 582.875C2035.64 582.875 2031.21 584.068 2027.86 586.455C2024.5 588.841 2022.37 592.136 2021.46 596.341L1983.03 594.977C1984.16 587.023 1987.09 579.92 1991.8 573.67C1996.58 567.364 2003.11 562.42 2011.41 558.841C2019.76 555.205 2029.79 553.386 2041.49 553.386C2049.84 553.386 2057.54 554.381 2064.59 556.369C2071.63 558.301 2077.77 561.142 2083 564.892C2088.22 568.585 2092.26 573.131 2095.1 578.528C2098 583.926 2099.45 590.091 2099.45 597.023V686H2060.24V667.761H2059.22C2056.89 672.193 2053.91 675.943 2050.27 679.011C2046.69 682.08 2042.46 684.381 2037.57 685.915C2032.74 687.449 2027.29 688.216 2021.21 688.216ZM2034.08 660.943C2038.57 660.943 2042.6 660.034 2046.18 658.216C2049.82 656.398 2052.71 653.898 2054.87 650.716C2057.03 647.477 2058.11 643.727 2058.11 639.466V627.023C2056.92 627.648 2055.47 628.216 2053.76 628.727C2052.12 629.239 2050.3 629.722 2048.31 630.176C2046.32 630.631 2044.28 631.028 2042.17 631.369C2040.07 631.71 2038.05 632.023 2036.12 632.307C2032.2 632.932 2028.85 633.898 2026.07 635.205C2023.34 636.511 2021.24 638.216 2019.76 640.318C2018.34 642.364 2017.63 644.807 2017.63 647.648C2017.63 651.966 2019.16 655.261 2022.23 657.534C2025.36 659.807 2029.3 660.943 2034.08 660.943ZM2219.28 563.784C2218.71 557.534 2216.18 552.676 2211.69 549.21C2207.26 545.688 2200.92 543.926 2192.68 543.926C2187.23 543.926 2182.68 544.636 2179.05 546.057C2175.41 547.477 2172.68 549.438 2170.87 551.938C2169.05 554.381 2168.11 557.193 2168.05 560.375C2167.94 562.989 2168.45 565.29 2169.59 567.278C2170.78 569.267 2172.49 571.028 2174.7 572.562C2176.97 574.04 2179.7 575.347 2182.88 576.483C2186.07 577.619 2189.64 578.614 2193.62 579.466L2208.62 582.875C2217.26 584.75 2224.87 587.25 2231.46 590.375C2238.11 593.5 2243.68 597.222 2248.17 601.54C2252.71 605.858 2256.15 610.83 2258.48 616.455C2260.81 622.08 2262 628.386 2262.06 635.375C2262 646.398 2259.22 655.858 2253.71 663.756C2248.2 671.653 2240.27 677.705 2229.93 681.909C2219.64 686.114 2207.23 688.216 2192.68 688.216C2178.08 688.216 2165.36 686.028 2154.5 681.653C2143.65 677.278 2135.21 670.631 2129.19 661.71C2123.17 652.79 2120.07 641.511 2119.9 627.875H2160.3C2160.64 633.5 2162.14 638.188 2164.82 641.938C2167.49 645.688 2171.15 648.528 2175.81 650.46C2180.53 652.392 2185.98 653.358 2192.17 653.358C2197.86 653.358 2202.68 652.591 2206.66 651.057C2210.7 649.523 2213.79 647.392 2215.95 644.665C2218.11 641.937 2219.22 638.812 2219.28 635.29C2219.22 631.994 2218.2 629.182 2216.21 626.852C2214.22 624.466 2211.15 622.42 2207 620.716C2202.91 618.955 2197.68 617.335 2191.32 615.858L2173.08 611.597C2157.97 608.131 2146.07 602.534 2137.37 594.807C2128.68 587.023 2124.36 576.511 2124.42 563.273C2124.36 552.477 2127.26 543.017 2133.11 534.892C2138.96 526.767 2147.06 520.432 2157.4 515.886C2167.74 511.341 2179.53 509.068 2192.77 509.068C2206.29 509.068 2218.03 511.369 2227.97 515.972C2237.97 520.517 2245.72 526.909 2251.24 535.148C2256.75 543.386 2259.56 552.932 2259.67 563.784H2219.28ZM2325.04 611.341V686H2283.37V511.455H2323.68V579.125H2325.13C2328.08 571.057 2332.91 564.75 2339.62 560.205C2346.38 555.659 2354.64 553.386 2364.42 553.386C2373.62 553.386 2381.63 555.432 2388.45 559.523C2395.27 563.557 2400.55 569.267 2404.3 576.653C2408.11 584.04 2409.99 592.676 2409.93 602.562V686H2368.25V610.744C2368.31 603.472 2366.49 597.79 2362.8 593.699C2359.11 589.608 2353.91 587.562 2347.2 587.562C2342.83 587.562 2338.96 588.528 2335.61 590.46C2332.32 592.335 2329.73 595.034 2327.86 598.557C2326.04 602.08 2325.1 606.341 2325.04 611.341ZM2497.14 688.472C2483.44 688.472 2471.63 685.773 2461.68 680.375C2451.8 674.92 2444.18 667.165 2438.84 657.108C2433.56 646.994 2430.92 634.977 2430.92 621.057C2430.92 607.534 2433.59 595.716 2438.93 585.602C2444.27 575.432 2451.8 567.534 2461.51 561.909C2471.23 556.227 2482.68 553.386 2495.86 553.386C2505.18 553.386 2513.7 554.835 2521.43 557.733C2529.15 560.631 2535.83 564.92 2541.46 570.602C2547.08 576.284 2551.46 583.301 2554.58 591.653C2557.71 599.949 2559.27 609.466 2559.27 620.205V630.602H2445.49V606.398H2520.49C2520.43 601.966 2519.38 598.017 2517.34 594.551C2515.29 591.085 2512.48 588.386 2508.9 586.455C2505.38 584.466 2501.31 583.472 2496.71 583.472C2492.05 583.472 2487.88 584.523 2484.18 586.625C2480.49 588.67 2477.56 591.483 2475.4 595.062C2473.25 598.585 2472.11 602.591 2472 607.08V631.71C2472 637.051 2473.05 641.739 2475.15 645.773C2477.25 649.75 2480.23 652.847 2484.1 655.062C2487.96 657.278 2492.56 658.386 2497.9 658.386C2501.6 658.386 2504.95 657.875 2507.96 656.852C2510.97 655.83 2513.56 654.324 2515.72 652.335C2517.88 650.347 2519.5 647.903 2520.58 645.006L2558.84 646.114C2557.25 654.693 2553.76 662.165 2548.36 668.528C2543.02 674.835 2536 679.75 2527.31 683.273C2518.62 686.739 2508.56 688.472 2497.14 688.472ZM2622.23 511.455V686H2580.55V511.455H2622.23ZM2723.16 555.091V585.773H2638.96V555.091H2723.16ZM2656.51 686V548.443C2656.51 538.33 2658.42 529.949 2662.22 523.301C2666.03 516.597 2671.31 511.597 2678.08 508.301C2684.84 504.949 2692.65 503.273 2701.51 503.273C2707.31 503.273 2712.76 503.727 2717.88 504.636C2723.05 505.489 2726.88 506.256 2729.38 506.938L2722.73 537.449C2721.2 536.937 2719.33 536.511 2717.11 536.17C2714.95 535.83 2712.9 535.659 2710.97 535.659C2706.09 535.659 2702.73 536.739 2700.92 538.898C2699.1 541.057 2698.19 544.011 2698.19 547.761V686H2656.51Z" fill="#F5F7FA"/>
<path d="M1653.37 793.182V895H1639.25L1587.49 820.327H1586.55V895H1571.19V793.182H1585.4L1637.21 867.955H1638.15V793.182H1653.37ZM1706.75 896.541C1699.59 896.541 1693.34 894.901 1688.01 891.619C1682.67 888.338 1678.53 883.748 1675.58 877.848C1672.63 871.948 1671.15 865.054 1671.15 857.166C1671.15 849.245 1672.63 842.318 1675.58 836.385C1678.53 830.452 1682.67 825.845 1688.01 822.564C1693.34 819.283 1699.59 817.642 1706.75 817.642C1713.91 817.642 1720.16 819.283 1725.49 822.564C1730.83 825.845 1734.97 830.452 1737.92 836.385C1740.87 842.318 1742.35 849.245 1742.35 857.166C1742.35 865.054 1740.87 871.948 1737.92 877.848C1734.97 883.748 1730.83 888.338 1725.49 891.619C1720.16 894.901 1713.91 896.541 1706.75 896.541ZM1706.8 884.062C1711.44 884.062 1715.28 882.836 1718.33 880.384C1721.38 877.931 1723.64 874.666 1725.09 870.589C1726.59 866.513 1727.33 862.022 1727.33 857.116C1727.33 852.244 1726.59 847.77 1725.09 843.693C1723.64 839.583 1721.38 836.286 1718.33 833.8C1715.28 831.314 1711.44 830.071 1706.8 830.071C1702.13 830.071 1698.25 831.314 1695.17 833.8C1692.12 836.286 1689.85 839.583 1688.35 843.693C1686.9 847.77 1686.17 852.244 1686.17 857.116C1686.17 862.022 1686.9 866.513 1688.35 870.589C1689.85 874.666 1692.12 877.931 1695.17 880.384C1698.25 882.836 1702.13 884.062 1706.8 884.062ZM1795.99 895V818.636H1810.26V831.065H1811.2C1812.79 826.856 1815.39 823.575 1819.01 821.222C1822.62 818.835 1826.95 817.642 1831.98 817.642C1837.09 817.642 1841.36 818.835 1844.81 821.222C1848.29 823.608 1850.86 826.889 1852.52 831.065H1853.31C1855.13 826.989 1858.03 823.741 1862.01 821.321C1865.99 818.868 1870.73 817.642 1876.23 817.642C1883.16 817.642 1888.81 819.813 1893.18 824.155C1897.59 828.497 1899.8 835.043 1899.8 843.793V895H1884.93V845.185C1884.93 840.014 1883.52 836.269 1880.7 833.949C1877.89 831.629 1874.52 830.469 1870.61 830.469C1865.77 830.469 1862.01 831.96 1859.33 834.943C1856.64 837.893 1855.3 841.688 1855.3 846.328V895H1840.48V844.24C1840.48 840.097 1839.19 836.766 1836.61 834.247C1834.02 831.728 1830.66 830.469 1826.51 830.469C1823.7 830.469 1821.1 831.214 1818.71 832.706C1816.36 834.164 1814.45 836.203 1812.99 838.821C1811.57 841.439 1810.85 844.472 1810.85 847.919V895H1795.99ZM1951.89 896.541C1944.73 896.541 1938.48 894.901 1933.14 891.619C1927.81 888.338 1923.66 883.748 1920.71 877.848C1917.76 871.948 1916.29 865.054 1916.29 857.166C1916.29 849.245 1917.76 842.318 1920.71 836.385C1923.66 830.452 1927.81 825.845 1933.14 822.564C1938.48 819.283 1944.73 817.642 1951.89 817.642C1959.04 817.642 1965.29 819.283 1970.63 822.564C1975.96 825.845 1980.11 830.452 1983.06 836.385C1986.01 842.318 1987.48 849.245 1987.48 857.166C1987.48 865.054 1986.01 871.948 1983.06 877.848C1980.11 883.748 1975.96 888.338 1970.63 891.619C1965.29 894.901 1959.04 896.541 1951.89 896.541ZM1951.94 884.062C1956.58 884.062 1960.42 882.836 1963.47 880.384C1966.52 877.931 1968.77 874.666 1970.23 870.589C1971.72 866.513 1972.47 862.022 1972.47 857.116C1972.47 852.244 1971.72 847.77 1970.23 843.693C1968.77 839.583 1966.52 836.286 1963.47 833.8C1960.42 831.314 1956.58 830.071 1951.94 830.071C1947.26 830.071 1943.38 831.314 1940.3 833.8C1937.25 836.286 1934.98 839.583 1933.49 843.693C1932.03 847.77 1931.3 852.244 1931.3 857.116C1931.3 862.022 1932.03 866.513 1933.49 870.589C1934.98 874.666 1937.25 877.931 1940.3 880.384C1943.38 882.836 1947.26 884.062 1951.94 884.062ZM2004.07 895V818.636H2018.44V830.767H2019.24C2020.63 826.657 2023.08 823.426 2026.6 821.072C2030.14 818.686 2034.15 817.493 2038.63 817.493C2039.56 817.493 2040.65 817.526 2041.91 817.592C2043.2 817.659 2044.21 817.741 2044.94 817.841V832.06C2044.34 831.894 2043.28 831.712 2041.76 831.513C2040.23 831.281 2038.71 831.165 2037.19 831.165C2033.67 831.165 2030.54 831.911 2027.79 833.402C2025.07 834.86 2022.92 836.899 2021.33 839.517C2019.74 842.102 2018.94 845.052 2018.94 848.366V895H2004.07ZM2087.98 896.541C2080.46 896.541 2073.98 894.934 2068.54 891.719C2063.14 888.471 2058.97 883.913 2056.02 878.047C2053.1 872.147 2051.64 865.237 2051.64 857.315C2051.64 849.493 2053.1 842.599 2056.02 836.634C2058.97 830.668 2063.08 826.011 2068.35 822.663C2073.65 819.316 2079.85 817.642 2086.94 817.642C2091.25 817.642 2095.42 818.355 2099.47 819.78C2103.51 821.205 2107.14 823.442 2110.36 826.491C2113.57 829.541 2116.11 833.501 2117.96 838.374C2119.82 843.213 2120.75 849.096 2120.75 856.023V861.293H2060.04V850.156H2106.18C2106.18 846.245 2105.38 842.782 2103.79 839.766C2102.2 836.716 2099.96 834.313 2097.08 832.557C2094.23 830.8 2090.88 829.922 2087.04 829.922C2082.86 829.922 2079.22 830.949 2076.1 833.004C2073.02 835.026 2070.63 837.678 2068.94 840.959C2067.28 844.207 2066.46 847.737 2066.46 851.548V860.249C2066.46 865.353 2067.35 869.695 2069.14 873.274C2070.96 876.854 2073.5 879.588 2076.75 881.477C2080 883.333 2083.79 884.261 2088.13 884.261C2090.95 884.261 2093.52 883.864 2095.84 883.068C2098.16 882.24 2100.16 881.013 2101.85 879.389C2103.54 877.765 2104.84 875.76 2105.73 873.374L2119.8 875.909C2118.67 880.052 2116.65 883.681 2113.74 886.797C2110.85 889.879 2107.22 892.282 2102.85 894.006C2098.51 895.696 2093.55 896.541 2087.98 896.541ZM2185.58 793.182V829.425H2173.25V793.182H2185.58ZM2241.12 818.636V830.568H2197.97V818.636H2241.12ZM2209.8 895V809.787C2209.8 805.014 2210.84 801.053 2212.93 797.905C2215.02 794.723 2217.79 792.353 2221.23 790.795C2224.68 789.205 2228.43 788.409 2232.47 788.409C2235.45 788.409 2238 788.658 2240.13 789.155C2242.25 789.619 2243.82 790.05 2244.85 790.447L2241.37 802.479C2240.67 802.28 2239.78 802.048 2238.68 801.783C2237.59 801.484 2236.26 801.335 2234.71 801.335C2231.09 801.335 2228.51 802.23 2226.95 804.02C2225.43 805.81 2224.66 808.395 2224.66 811.776V895H2209.8ZM2256.46 895V818.636H2271.32V895H2256.46ZM2263.96 806.854C2261.38 806.854 2259.16 805.992 2257.3 804.268C2255.48 802.512 2254.57 800.424 2254.57 798.004C2254.57 795.552 2255.48 793.464 2257.3 791.74C2259.16 789.983 2261.38 789.105 2263.96 789.105C2266.55 789.105 2268.75 789.983 2270.58 791.74C2272.43 793.464 2273.36 795.552 2273.36 798.004C2273.36 800.424 2272.43 802.512 2270.58 804.268C2268.75 805.992 2266.55 806.854 2263.96 806.854ZM2306.19 849.659V895H2291.32V818.636H2305.59V831.065H2306.53C2308.29 827.022 2311.04 823.774 2314.79 821.321C2318.57 818.868 2323.32 817.642 2329.06 817.642C2334.26 817.642 2338.82 818.736 2342.73 820.923C2346.64 823.078 2349.67 826.293 2351.83 830.568C2353.98 834.844 2355.06 840.13 2355.06 846.428V895H2340.19V848.217C2340.19 842.682 2338.75 838.357 2335.87 835.241C2332.98 832.093 2329.02 830.518 2323.98 830.518C2320.54 830.518 2317.47 831.264 2314.79 832.756C2312.14 834.247 2310.03 836.435 2308.47 839.318C2306.95 842.169 2306.19 845.616 2306.19 849.659ZM2397.22 896.69C2392.38 896.69 2388 895.795 2384.09 894.006C2380.18 892.183 2377.08 889.548 2374.79 886.101C2372.54 882.654 2371.41 878.428 2371.41 873.423C2371.41 869.115 2372.24 865.568 2373.9 862.784C2375.56 860 2377.79 857.796 2380.61 856.172C2383.43 854.548 2386.58 853.321 2390.06 852.493C2393.54 851.664 2397.08 851.035 2400.7 850.604C2405.27 850.073 2408.98 849.643 2411.83 849.311C2414.68 848.946 2416.75 848.366 2418.05 847.571C2419.34 846.776 2419.99 845.483 2419.99 843.693V843.345C2419.99 839.003 2418.76 835.639 2416.31 833.253C2413.89 830.866 2410.27 829.673 2405.47 829.673C2400.46 829.673 2396.52 830.784 2393.64 833.004C2390.79 835.192 2388.81 837.628 2387.72 840.312L2373.75 837.131C2375.41 832.491 2377.83 828.745 2381.01 825.895C2384.22 823.011 2387.92 820.923 2392.1 819.631C2396.27 818.305 2400.66 817.642 2405.27 817.642C2408.32 817.642 2411.55 818.007 2414.96 818.736C2418.41 819.432 2421.63 820.724 2424.61 822.614C2427.63 824.503 2430.09 827.204 2432.02 830.717C2433.94 834.197 2434.9 838.722 2434.9 844.29V895H2420.38V884.56H2419.79C2418.83 886.482 2417.38 888.371 2415.46 890.227C2413.54 892.083 2411.07 893.625 2408.05 894.851C2405.04 896.077 2401.43 896.69 2397.22 896.69ZM2400.45 884.759C2404.56 884.759 2408.07 883.946 2410.99 882.322C2413.94 880.698 2416.17 878.577 2417.7 875.959C2419.26 873.307 2420.04 870.473 2420.04 867.457V857.614C2419.51 858.144 2418.48 858.641 2416.95 859.105C2415.46 859.536 2413.75 859.917 2411.83 860.249C2409.91 860.547 2408.04 860.829 2406.21 861.094C2404.39 861.326 2402.87 861.525 2401.64 861.69C2398.76 862.055 2396.12 862.668 2393.74 863.53C2391.38 864.392 2389.49 865.634 2388.07 867.259C2386.68 868.849 2385.98 870.971 2385.98 873.622C2385.98 877.301 2387.34 880.085 2390.06 881.974C2392.77 883.83 2396.24 884.759 2400.45 884.759ZM2469.56 793.182V895H2454.7V793.182H2469.56ZM2548.89 895V907.628H2484.21V895H2548.89ZM2595.09 818.636V830.568H2551.93V818.636H2595.09ZM2563.76 895V809.787C2563.76 805.014 2564.81 801.053 2566.9 797.905C2568.98 794.723 2571.75 792.353 2575.2 790.795C2578.65 789.205 2582.39 788.409 2586.43 788.409C2589.42 788.409 2591.97 788.658 2594.09 789.155C2596.21 789.619 2597.79 790.05 2598.81 790.447L2595.33 802.479C2594.64 802.28 2593.74 802.048 2592.65 801.783C2591.56 801.484 2590.23 801.335 2588.67 801.335C2585.06 801.335 2582.47 802.23 2580.92 804.02C2579.39 805.81 2578.63 808.395 2578.63 811.776V895H2563.76ZM2610.42 895V818.636H2625.29V895H2610.42ZM2617.93 806.854C2615.34 806.854 2613.12 805.992 2611.27 804.268C2609.44 802.512 2608.53 800.424 2608.53 798.004C2608.53 795.552 2609.44 793.464 2611.27 791.74C2613.12 789.983 2615.34 789.105 2617.93 789.105C2620.51 789.105 2622.72 789.983 2624.54 791.74C2626.4 793.464 2627.33 795.552 2627.33 798.004C2627.33 800.424 2626.4 802.512 2624.54 804.268C2622.72 805.992 2620.51 806.854 2617.93 806.854ZM2660.15 849.659V895H2645.29V818.636H2659.55V831.065H2660.5C2662.26 827.022 2665.01 823.774 2668.75 821.321C2672.53 818.868 2677.29 817.642 2683.02 817.642C2688.22 817.642 2692.78 818.736 2696.69 820.923C2700.6 823.078 2703.64 826.293 2705.79 830.568C2707.94 834.844 2709.02 840.13 2709.02 846.428V895H2694.16V848.217C2694.16 842.682 2692.71 838.357 2689.83 835.241C2686.95 832.093 2682.99 830.518 2677.95 830.518C2674.5 830.518 2671.44 831.264 2668.75 832.756C2666.1 834.247 2664 836.435 2662.44 839.318C2660.91 842.169 2660.15 845.616 2660.15 849.659ZM2751.18 896.69C2746.34 896.69 2741.97 895.795 2738.06 894.006C2734.14 892.183 2731.05 889.548 2728.76 886.101C2726.51 882.654 2725.38 878.428 2725.38 873.423C2725.38 869.115 2726.21 865.568 2727.86 862.784C2729.52 860 2731.76 857.796 2734.58 856.172C2737.39 854.548 2740.54 853.321 2744.02 852.493C2747.5 851.664 2751.05 851.035 2754.66 850.604C2759.23 850.073 2762.95 849.643 2765.8 849.311C2768.65 848.946 2770.72 848.366 2772.01 847.571C2773.3 846.776 2773.95 845.483 2773.95 843.693V843.345C2773.95 839.003 2772.72 835.639 2770.27 833.253C2767.85 830.866 2764.24 829.673 2759.43 829.673C2754.43 829.673 2750.48 830.784 2747.6 833.004C2744.75 835.192 2742.78 837.628 2741.69 840.312L2727.71 837.131C2729.37 832.491 2731.79 828.745 2734.97 825.895C2738.19 823.011 2741.88 820.923 2746.06 819.631C2750.24 818.305 2754.63 817.642 2759.23 817.642C2762.28 817.642 2765.52 818.007 2768.93 818.736C2772.38 819.432 2775.59 820.724 2778.57 822.614C2781.59 824.503 2784.06 827.204 2785.98 830.717C2787.9 834.197 2788.87 838.722 2788.87 844.29V895H2774.35V884.56H2773.75C2772.79 886.482 2771.35 888.371 2769.43 890.227C2767.5 892.083 2765.03 893.625 2762.02 894.851C2759 896.077 2755.39 896.69 2751.18 896.69ZM2754.41 884.759C2758.52 884.759 2762.04 883.946 2764.95 882.322C2767.9 880.698 2770.14 878.577 2771.66 875.959C2773.22 873.307 2774 870.473 2774 867.457V857.614C2773.47 858.144 2772.44 858.641 2770.92 859.105C2769.43 859.536 2767.72 859.917 2765.8 860.249C2763.87 860.547 2762 860.829 2760.18 861.094C2758.36 861.326 2756.83 861.525 2755.61 861.69C2752.72 862.055 2750.09 862.668 2747.7 863.53C2745.35 864.392 2743.46 865.634 2742.03 867.259C2740.64 868.849 2739.94 870.971 2739.94 873.622C2739.94 877.301 2741.3 880.085 2744.02 881.974C2746.74 883.83 2750.2 884.759 2754.41 884.759ZM2823.53 793.182V895H2808.66V793.182H2823.53ZM2853.32 895.945C2850.6 895.945 2848.27 894.983 2846.31 893.061C2844.36 891.106 2843.38 888.752 2843.38 886.001C2843.38 883.284 2844.36 880.964 2846.31 879.041C2848.27 877.086 2850.6 876.108 2853.32 876.108C2856.04 876.108 2858.38 877.086 2860.33 879.041C2862.29 880.964 2863.27 883.284 2863.27 886.001C2863.27 887.824 2862.8 889.498 2861.87 891.023C2860.98 892.514 2859.79 893.707 2858.29 894.602C2856.8 895.497 2855.15 895.945 2853.32 895.945ZM2915.34 896.541C2907.95 896.541 2901.59 894.867 2896.25 891.52C2890.95 888.139 2886.87 883.482 2884.02 877.55C2881.17 871.617 2879.75 864.822 2879.75 857.166C2879.75 849.411 2881.2 842.566 2884.12 836.634C2887.04 830.668 2891.15 826.011 2896.45 822.663C2901.75 819.316 2908 817.642 2915.19 817.642C2920.99 817.642 2926.16 818.719 2930.7 820.874C2935.25 822.995 2938.91 825.978 2941.69 829.822C2944.51 833.667 2946.18 838.158 2946.71 843.295H2932.25C2931.45 839.716 2929.63 836.634 2926.78 834.048C2923.96 831.463 2920.18 830.17 2915.44 830.17C2911.3 830.17 2907.67 831.264 2904.55 833.452C2901.47 835.606 2899.07 838.688 2897.35 842.699C2895.62 846.676 2894.76 851.383 2894.76 856.818C2894.76 862.386 2895.61 867.192 2897.3 871.236C2898.99 875.279 2901.37 878.411 2904.45 880.632C2907.57 882.853 2911.23 883.963 2915.44 883.963C2918.26 883.963 2920.81 883.449 2923.1 882.422C2925.42 881.361 2927.36 879.853 2928.92 877.898C2930.51 875.942 2931.62 873.589 2932.25 870.838H2946.71C2946.18 875.777 2944.58 880.185 2941.89 884.062C2939.21 887.94 2935.61 890.99 2931.1 893.21C2926.63 895.431 2921.37 896.541 2915.34 896.541ZM3019.83 837.28L3006.36 839.666C3005.8 837.943 3004.9 836.302 3003.68 834.744C3002.48 833.187 3000.86 831.911 2998.8 830.916C2996.75 829.922 2994.18 829.425 2991.1 829.425C2986.89 829.425 2983.37 830.369 2980.56 832.259C2977.74 834.115 2976.33 836.518 2976.33 839.467C2976.33 842.019 2977.28 844.074 2979.17 845.632C2981.05 847.19 2984.1 848.466 2988.31 849.46L3000.44 852.244C3007.47 853.868 3012.71 856.371 3016.15 859.751C3019.6 863.132 3021.32 867.524 3021.32 872.926C3021.32 877.5 3020 881.577 3017.35 885.156C3014.73 888.703 3011.07 891.487 3006.36 893.509C3001.69 895.53 2996.27 896.541 2990.1 896.541C2981.55 896.541 2974.58 894.718 2969.17 891.072C2963.77 887.393 2960.46 882.173 2959.23 875.412L2973.6 873.224C2974.49 876.97 2976.33 879.804 2979.12 881.726C2981.9 883.615 2985.53 884.56 2990 884.56C2994.88 884.56 2998.77 883.549 3001.69 881.527C3004.6 879.472 3006.06 876.97 3006.06 874.02C3006.06 871.634 3005.17 869.628 3003.38 868.004C3001.62 866.38 2998.92 865.154 2995.27 864.325L2982.35 861.491C2975.22 859.867 2969.95 857.282 2966.54 853.736C2963.16 850.189 2961.47 845.698 2961.47 840.263C2961.47 835.755 2962.73 831.811 2965.25 828.43C2967.76 825.05 2971.24 822.415 2975.69 820.526C2980.13 818.603 2985.21 817.642 2990.95 817.642C2999.2 817.642 3005.7 819.432 3010.44 823.011C3015.18 826.558 3018.31 831.314 3019.83 837.28ZM3103 818.636L3075.3 895H3059.39L3031.65 818.636H3047.61L3066.95 877.401H3067.75L3087.04 818.636H3103ZM3128.25 793.182V829.425H3115.92V793.182H3128.25ZM3145.35 895.945C3142.64 895.945 3140.3 894.983 3138.34 893.061C3136.39 891.106 3135.41 888.752 3135.41 886.001C3135.41 883.284 3136.39 880.964 3138.34 879.041C3140.3 877.086 3142.64 876.108 3145.35 876.108C3148.07 876.108 3150.41 877.086 3152.36 879.041C3154.32 880.964 3155.3 883.284 3155.3 886.001C3155.3 887.824 3154.83 889.498 3153.9 891.023C3153.01 892.514 3151.82 893.707 3150.32 894.602C3148.83 895.497 3147.18 895.945 3145.35 895.945Z" fill="#AAB4C5"/>
</svg>
